<svg xmlns="http://www.w3.org/2000/svg" viewBox="0 0 300 300" width="300" height="300">
  <defs>
    <!-- Gradients for realistic braid colors -->
    <linearGradient id="purpleDark" x1="0%" y1="0%" x2="100%" y2="100%">
      <stop offset="0%" style="stop-color:#5B21B6;stop-opacity:1" />
      <stop offset="50%" style="stop-color:#7C3AED;stop-opacity:1" />
      <stop offset="100%" style="stop-color:#6D28D9;stop-opacity:1" />
    </linearGradient>
    
    <linearGradient id="pinkLight" x1="0%" y1="0%" x2="100%" y2="100%">
      <stop offset="0%" style="stop-color:#F9A8D4;stop-opacity:1" />
      <stop offset="50%" style="stop-color:#F472B6;stop-opacity:1" />
      <stop offset="100%" style="stop-color:#EC4899;stop-opacity:1" />
    </linearGradient>
    
    <linearGradient id="purpleMid" x1="0%" y1="0%" x2="100%" y2="100%">
      <stop offset="0%" style="stop-color:#7C3AED;stop-opacity:1" />
      <stop offset="50%" style="stop-color:#8B5CF6;stop-opacity:1" />
      <stop offset="100%" style="stop-color:#A78BFA;stop-opacity:1" />
    </linearGradient>
    
    <linearGradient id="pinkMid" x1="0%" y1="0%" x2="100%" y2="100%">
      <stop offset="0%" style="stop-color:#EC4899;stop-opacity:1" />
      <stop offset="50%" style="stop-color:#DB2777;stop-opacity:1" />
      <stop offset="100%" style="stop-color:#BE185D;stop-opacity:1" />
    </linearGradient>
    
    <!-- Sharp shadow filter -->
    <filter id="sharpShadow" x="-50%" y="-50%" width="200%" height="200%">
      <feGaussianBlur in="SourceAlpha" stdDeviation="3"/>
      <feOffset dx="0" dy="4" result="offsetblur"/>
      <feComponentTransfer>
        <feFuncA type="linear" slope="0.5"/>
      </feComponentTransfer>
      <feMerge>
        <feMergeNode/>
        <feMergeNode in="SourceGraphic"/>
      </feMerge>
    </filter>
    
    <!-- Inner shadow for depth -->
    <filter id="innerShadow">
      <feGaussianBlur in="SourceAlpha" stdDeviation="2"/>
      <feOffset dx="0" dy="2"/>
      <feComposite in2="SourceAlpha" operator="arithmetic" k2="-1" k3="1"/>
      <feColorMatrix type="matrix" values="0 0 0 0 0 0 0 0 0 0 0 0 0 0 0 0 0 0 0.3 0"/>
      <feBlend in2="SourceGraphic" mode="multiply"/>
    </filter>
  </defs>
  
  <!-- Main Braid Structure - Bold and Sharp -->
  <g transform="translate(150, 150)" filter="url(#sharpShadow)">
    
    <!-- Left Purple Strand (Dark) - BOLD -->
    <path d="M -45 -90 
             Q -65 -60, -50 -30 
             Q -35 0, -55 30 
             Q -70 60, -50 90 
             Q -35 120, -45 150" 
          fill="url(#purpleDark)" 
          stroke="#4C1D95" 
          stroke-width="3"
          stroke-linejoin="round"/>
    
    <!-- Right Pink Strand (Light) - BOLD -->
    <path d="M 45 -90 
             Q 65 -60, 50 -30 
             Q 35 0, 55 30 
             Q 70 60, 50 90 
             Q 35 120, 45 150" 
          fill="url(#pinkLight)" 
          stroke="#BE185D" 
          stroke-width="3"
          stroke-linejoin="round"/>
    
    <!-- Center Weaving Strand (Purple-Pink Mix) - BOLD -->
    <path d="M 0 -95 
             Q -15 -65, 0 -35 
             Q 15 -5, 0 25 
             Q -15 55, 0 85 
             Q 15 115, 0 145" 
          fill="url(#purpleMid)" 
          stroke="#7C3AED" 
          stroke-width="3"
          stroke-linejoin="round"/>
    
    <!-- Weaving Segments - Sharp and Defined -->
    <!-- Top weave -->
    <ellipse cx="-25" cy="-75" rx="20" ry="14" fill="url(#purpleDark)" opacity="0.95" stroke="#4C1D95" stroke-width="2"/>
    <ellipse cx="25" cy="-60" rx="20" ry="14" fill="url(#pinkLight)" opacity="0.95" stroke="#BE185D" stroke-width="2"/>
    
    <!-- Upper-mid weave -->
    <ellipse cx="-30" cy="-45" rx="22" ry="15" fill="url(#purpleDark)" opacity="0.95" stroke="#4C1D95" stroke-width="2"/>
    <ellipse cx="30" cy="-30" rx="22" ry="15" fill="url(#pinkLight)" opacity="0.95" stroke="#BE185D" stroke-width="2"/>
    
    <!-- Center weave -->
    <ellipse cx="-35" cy="-15" rx="24" ry="16" fill="url(#purpleDark)" opacity="0.95" stroke="#4C1D95" stroke-width="2"/>
    <ellipse cx="35" cy="0" rx="24" ry="16" fill="url(#pinkLight)" opacity="0.95" stroke="#BE185D" stroke-width="2"/>
    
    <!-- Lower-mid weave -->
    <ellipse cx="-35" cy="15" rx="24" ry="16" fill="url(#purpleDark)" opacity="0.95" stroke="#4C1D95" stroke-width="2"/>
    <ellipse cx="35" cy="30" rx="24" ry="16" fill="url(#pinkLight)" opacity="0.95" stroke="#BE185D" stroke-width="2"/>
    
    <!-- Bottom weave -->
    <ellipse cx="-30" cy="45" rx="22" ry="15" fill="url(#purpleDark)" opacity="0.95" stroke="#4C1D95" stroke-width="2"/>
    <ellipse cx="30" cy="60" rx="22" ry="15" fill="url(#pinkLight)" opacity="0.95" stroke="#BE185D" stroke-width="2"/>
    
    <!-- Tail weave -->
    <ellipse cx="-25" cy="75" rx="20" ry="14" fill="url(#purpleDark)" opacity="0.95" stroke="#4C1D95" stroke-width="2"/>
    <ellipse cx="25" cy="90" rx="20" ry="14" fill="url(#pinkLight)" opacity="0.95" stroke="#BE185D" stroke-width="2"/>
    
    <!-- Hair Texture Lines for Realism - Sharp Details -->
    <!-- Left strand texture -->
    <path d="M -42 -85 L -48 -80" stroke="#FFFFFF" stroke-width="2.5" opacity="0.6" stroke-linecap="round"/>
    <path d="M -38 -70 L -44 -65" stroke="#FFFFFF" stroke-width="2.5" opacity="0.6" stroke-linecap="round"/>
    <path d="M -45 -55 L -51 -50" stroke="#FFFFFF" stroke-width="2.5" opacity="0.6" stroke-linecap="round"/>
    <path d="M -40 -40 L -46 -35" stroke="#FFFFFF" stroke-width="2.5" opacity="0.6" stroke-linecap="round"/>
    <path d="M -48 -25 L -54 -20" stroke="#FFFFFF" stroke-width="2.5" opacity="0.6" stroke-linecap="round"/>
    
    <!-- Right strand texture -->
    <path d="M 42 -85 L 48 -80" stroke="#FFFFFF" stroke-width="2.5" opacity="0.7" stroke-linecap="round"/>
    <path d="M 38 -70 L 44 -65" stroke="#FFFFFF" stroke-width="2.5" opacity="0.7" stroke-linecap="round"/>
    <path d="M 45 -55 L 51 -50" stroke="#FFFFFF" stroke-width="2.5" opacity="0.7" stroke-linecap="round"/>
    <path d="M 40 -40 L 46 -35" stroke="#FFFFFF" stroke-width="2.5" opacity="0.7" stroke-linecap="round"/>
    <path d="M 48 -25 L 54 -20" stroke="#FFFFFF" stroke-width="2.5" opacity="0.7" stroke-linecap="round"/>
    
    <!-- Center strand texture -->
    <path d="M 3 -90 L -3 -85" stroke="#FFFFFF" stroke-width="3" opacity="0.8" stroke-linecap="round"/>
    <path d="M 5 -70 L -1 -65" stroke="#FFFFFF" stroke-width="3" opacity="0.8" stroke-linecap="round"/>
    <path d="M 4 -50 L -2 -45" stroke="#FFFFFF" stroke-width="3" opacity="0.8" stroke-linecap="round"/>
    <path d="M 6 -30 L 0 -25" stroke="#FFFFFF" stroke-width="3" opacity="0.8" stroke-linecap="round"/>
    
    <!-- Highlight strokes for 3D effect - BOLD -->
    <path d="M -40 -88 Q -60 -58, -45 -28 Q -30 2, -50 32 Q -65 62, -45 92" 
          fill="none" 
          stroke="#FFFFFF" 
          stroke-width="4" 
          opacity="0.5"
          stroke-linecap="round"/>
    
    <path d="M 40 -88 Q 60 -58, 45 -28 Q 30 2, 50 32 Q 65 62, 45 92" 
          fill="none" 
          stroke="#FFFFFF" 
          stroke-width="4" 
          opacity="0.6"
          stroke-linecap="round"/>
    
    <path d="M 5 -92 Q 0 -62, 5 -32 Q 10 -2, 5 28 Q 0 58, 5 88" 
          fill="none" 
          stroke="#FFFFFF" 
          stroke-width="5" 
          opacity="0.7"
          stroke-linecap="round"/>
    
    <!-- Braid ties/bands for detail -->
    <rect x="-8" y="-95" width="16" height="6" rx="3" fill="#FFFFFF" opacity="0.8"/>
    <rect x="-8" y="140" width="16" height="6" rx="3" fill="#FFFFFF" opacity="0.8"/>
    
  </g>
</svg>
